<?xml version="1.0"?>
<svg viewBox="0 0 600 600" xmlns="http://www.w3.org/2000/svg" xmlns:svg="http://www.w3.org/2000/svg" version="1.1">
 <metadata id="metadata16">image/svg+xml</metadata>
 <g class="layer">
  <title>Layer 1</title>
  <path d="m0,0l668,0l0,600l-668,0l0,-600z" fill="#cc0000" id="path2"/>
  <path d="m200,37.5l-8.42,25.91l-27.24,0l22.04,16.02l-8.42,25.91l22.04,-16.02l22.04,16.02l-8.42,-25.91l22.04,-16.02l-27.24,0l-8.42,-25.91zm0,13.5l5.39,16.58l17.44,0l-14.11,10.25l5.39,16.59l-14.11,-10.25l-14.11,10.25l5.39,-16.59l-14.1,-10.25l17.43,0l5.39,-16.58z" fill="#ffd700" id="path11728" stroke-width="0.15px"/>
  <g fill="#ffd700" id="g2900" transform="matrix(0.98931879,0,0,0.98673811,3.8297658,3.7659398)">
   <path d="m137.44,171.69l18.86,19l17.79,-17.67c27.06,29.02 55.44,57 82.29,86.13c4.03,4.06 10.59,4.08 14.66,0.05c4.06,-4.03 4.08,-10.6 0.05,-14.66c-28.82,-27.19 -57.73,-54.6 -86.56,-81.89l23.97,-23.8l-33.34,-4.62l-37.72,37.46z" fill="#ffd700" id="rect4165-6" stroke-dashoffset="0" stroke-miterlimit="4" stroke-width="0.49"/>
   <path d="m198.29,110.2c15.52,8.73 27.3,21.28 34.25,34.39c7.04,13.29 10.14,27.16 10.2,38.25c0.13,22.75 -18.44,41.18 -41.18,41.18c-12.14,0 -23.05,-5.24 -30.58,-13.6l-4.17,3.51c-0.71,-0.27 -1.47,-0.41 -2.23,-0.41c-1.83,0 -3.56,0.81 -4.75,2.2c-2.97,0.39 -5.46,2.45 -6.4,5.29c-3.14,6.29 -8.64,11.22 -15.29,13.48c-0.07,0.02 -0.12,0.05 -0.18,0.08c-3.08,1.13 -6.16,3.16 -8.79,5.8c-5.19,5.24 -7.73,11.94 -6.3,16.64c-0.14,0.41 -0.21,0.84 -0.21,1.27c0,2.17 1.76,3.93 3.93,3.93c0.54,0 1.08,-0.11 1.58,-0.33c4.69,1.05 11.06,-1.55 16.05,-6.56c2.83,-2.85 4.94,-6.23 5.98,-9.53c2.32,-6.63 7.3,-12.02 13.63,-15.06c0.15,-0.07 0.27,-0.14 0.38,-0.22c2.12,-1.02 3.67,-2.93 4.22,-5.22c9.71,11.45 24.26,18.76 40.52,19.14c29.84,0.7 52.13,-21.26 53.17,-52.84c0.51,-15.89 -5.63,-36.38 -19.65,-53.19c-10.7,-12.84 -26.41,-23.5 -44.18,-28.2z" fill="#ffd700" id="path4179-3" stroke-dashoffset="0" stroke-miterlimit="4" stroke-width="0.5"/>
  </g>
 </g>
</svg>